<?xml version="1.0" encoding="utf-8"?>
<!-- Uploaded to: SVG Repo, www.svgrepo.com, Generator: SVG Repo Mixer Tools -->
<svg width="800px" height="800px" viewBox="0 0 1024 1024" class="icon"  version="1.1" xmlns="http://www.w3.org/2000/svg"><path d="M512 64a448 448 0 1 1 0 896A448 448 0 0 1 512 64zM140.8 512a371.2 371.2 0 1 0 742.4 0A371.2 371.2 0 0 0 140.8 512zM512 588.8a179.2 179.2 0 0 0-177.92 157.76 296.064 296.064 0 0 1-62.976-65.28c21.376-59.392 64-108.544 118.784-138.304a185.6 185.6 0 1 1 244.288 0 256.832 256.832 0 0 1 118.72 138.24 296.064 296.064 0 0 1-62.976 65.344A179.2 179.2 0 0 0 512 588.8z m0-294.4A108.8 108.8 0 1 0 512 512a108.8 108.8 0 0 0 0-217.6z" fill="#000000" /></svg>