<svg xmlns="http://www.w3.org/2000/svg" version="1.1" xmlns:xlink="http://www.w3.org/1999/xlink" xmlns:svgjs="http://svgjs.dev/svgjs" width="650" height="650" preserveAspectRatio="none" viewBox="0 0 650 650"><g mask="url(&quot;#SvgjsMask2218&quot;)" fill="none"><use xlink:href="#SvgjsG2223" transform="translate(0, 0)" fill="rgba(172, 172, 179, 1)"></use></g><defs><mask id="SvgjsMask2218"><rect width="650" height="650" fill="#ffffff"></rect></mask><g id="SvgjsG2219"><path d="M8.828 1.361C8.627 0.58 7.913 0 7.069 0 6.062 0 5.248 0.81 5.248 1.815c0 0.17 0.02 0.324 0.063 0.477h0.73c0.054 0.126 0.112 0.198 0.112 0.198a1.216 1.216 0 0 0 0.999 0.522 1.222 1.222 0 0 0 1.223-1.222c0-0.155 0.04-0.295-0.026-0.428h0.48v-0.001z m-0.051 10.853c-0.191 0.195-0.454 0.342-0.752 0.343V8.603l2.737-0.787 0.685 1.351L8.777 12.214z"></path><path d="M6.48 3.166a0.979 0.979 0 0 0-0.735-0.327c-0.311 0-0.59 0.144-0.769 0.37l-2.171 3.318a0.972 0.972 0 0 0-0.139 0.504 0.984 0.984 0 0 0 0.436 0.819l2.914 1.617V12.218A0.705 0.705 0 0 0 6.72 12.924c0.387 0 0.703-0.316 0.703-0.706V8.782s0.093-0.547-0.529-0.847l-1.817-0.95 1.324-2.022 0.703 1.104c0.14 0.222 0.33 0.31 0.502 0.306l1.806-0.006c0.734 0 0.734-0.954 0-0.951H7.949L6.48 3.166z m7.985 4.511c0.029 0.028 0.047 0.064 0.047 0.11 0 0.086-0.074 0.159-0.16 0.159-0.024 0-0.04 0-0.058-0.007-0.312-0.133-0.51-0.216-0.872-0.216-0.241 0-0.536 0.083-0.878 0.362l-0.317-0.626c0.395-0.119 0.72-0.224 1.058-0.224 0.541 0 0.826 0.112 1.178 0.444z"></path><path d="M2.349 8.158l3.058 1.687 0.007 0.677L1.922 8.599c-0.253-0.13-0.593-0.206-0.834-0.207-0.361 0-0.56 0.083-0.87 0.217-0.019 0.007-0.035 0.007-0.058 0.007A0.161 0.161 0 0 1 0 8.458c0-0.047 0.018-0.083 0.047-0.111 0.354-0.332 0.715-0.444 1.256-0.444 0.277 0 0.614 0.032 1.048 0.256z m0.283 6.204c0.996 0 1.803-0.807 1.804-1.805S3.629 10.752 2.632 10.752c-0.996 0-1.803 0.806-1.802 1.805 0 0.997 0.807 1.805 1.803 1.805zM0.031 12.557c0-1.437 1.166-2.605 2.601-2.605 1.44 0 2.605 1.167 2.605 2.605 0 1.437-1.165 2.604-2.605 2.604C1.197 15.161 0.031 13.994 0.031 12.557z m13.364 1.805A1.803 1.803 0 0 0 15.2 12.557 1.804 1.804 0 0 0 13.395 10.752c-0.993 0-1.8 0.807-1.801 1.805 0 0.998 0.807 1.805 1.801 1.805z m-2.6-1.805c0-1.437 1.163-2.605 2.6-2.605C14.832 9.952 16 11.12 16 12.557s-1.168 2.604-2.605 2.603c-1.437 0-2.6-1.166-2.6-2.603z m2.027-2.975L11.558 7.053a0.981 0.981 0 0 0-0.86-0.512h-0.824a0.293 0.293 0 0 0-0.291 0.295c0 0.163 0.13 0.292 0.292 0.292l0.825-0.005c0.14 0 0.295 0.094 0.353 0.23l1.191 2.429 0.58-0.201z"></path></g><g id="SvgjsG2220"><path d="M13.165 5.485L5.295 15.96l1.814-7.368-4.222 0.071L9.733 0 7.677 5.489l5.488-0.004z" fill-rule="evenodd"></path></g><g id="SvgjsG2221"><path d="M14.548 5.951L13.236 2.565C12.991 1.916 12.455 1.365 11.441 1.36H4.548c-1.01 0.005-1.546 0.556-1.795 1.205l-1.312 3.386C0.92 6.019-0.002 6.63 0 7.79V12.102h1.28v1.377c-0.003 1.697 2.398 1.677 2.397 0V12.102h8.635v1.377c0.005 1.677 2.407 1.697 2.408 0V12.102h1.28V7.79c-0.004-1.16-0.926-1.772-1.452-1.838zM2.516 9.5c-0.613 0.002-1.11-0.51-1.107-1.139-0.003-0.634 0.494-1.146 1.107-1.141 0.612-0.005 1.108 0.507 1.108 1.141 0.001 0.629-0.496 1.141-1.108 1.139zM8 5.92H2.806l0.99-2.667c0.119-0.379 0.305-0.65 0.742-0.656H11.462c0.431 0.006 0.617 0.277 0.742 0.656l0.99 2.665H8z m5.484 3.58c-0.618 0.002-1.115-0.51-1.118-1.139 0.003-0.634 0.5-1.146 1.118-1.141 0.607-0.005 1.104 0.507 1.107 1.141-0.004 0.629-0.5 1.141-1.107 1.139z"></path></g><g id="SvgjsG2222"><path d="M12.676 8.32c-1.028 0-1.863 0.836-1.864 1.867 0 1.031 0.836 1.86 1.867 1.859S14.542 11.218 14.542 10.187c0-1.031-0.836-1.867-1.866-1.867M1.982 10.578c0.185 0.832 0.93 1.484 1.821 1.484 0.9 0 1.653-0.64 1.825-1.486H1.982z" fill-rule="evenodd"></path><path d="M14.32 8.213c-0.332-1.502-1.822-1.333-1.822-1.333l-0.454-1.458c-0.014-0.062 0.076-0.089 0.077-0.089l0.768-0.231-0.107-1.081L11.881 3.947C11.623 3.973 11.563 3.733 11.563 3.733l-0.107-0.373C11.383 3.07 11.129 3.102 11.129 3.102H9.333c-0.256 0.19 0.044 0.343 0.045 0.343h1.102c0.103-0.018 0.164 0.107 0.164 0.107l0.604 3.627c-1.358 0.907-1.582 1.959-1.582 1.959H7.614c-1.28-0.965-0.711-2.35-0.711-2.35h0.498v-1.007H0.88v1.007h0.996c-1.387 1.326-1.28 3.285-1.28 3.285h9.656A2.428 2.428 0 0 1 14.222 8.309s0.142 0.103 0.098-0.097" fill-rule="evenodd"></path></g><g id="SvgjsG2223"><use xlink:href="#SvgjsG2219" transform="translate(0, 0) scale(1.7)" fill="rgba(172, 172, 179, 1)"></use><use xlink:href="#SvgjsG2220" transform="translate(0, 66.3) scale(1.7)" fill="rgba(172, 172, 179, 1)"></use><use xlink:href="#SvgjsG2221" transform="translate(0, 132.6) scale(1.7)" fill="rgba(172, 172, 179, 1)"></use><use xlink:href="#SvgjsG2222" transform="translate(0, 198.89999999999998) scale(1.7)" fill="rgba(172, 172, 179, 1)"></use><use xlink:href="#SvgjsG2219" transform="translate(0, 265.2) scale(1.7)" fill="rgba(172, 172, 179, 1)"></use><use xlink:href="#SvgjsG2220" transform="translate(0, 331.5) scale(1.7)" fill="rgba(172, 172, 179, 1)"></use><use xlink:href="#SvgjsG2221" transform="translate(0, 397.79999999999995) scale(1.7)" fill="rgba(172, 172, 179, 1)"></use><use xlink:href="#SvgjsG2222" transform="translate(0, 464.09999999999997) scale(1.7)" fill="rgba(172, 172, 179, 1)"></use><use xlink:href="#SvgjsG2219" transform="translate(0, 530.4) scale(1.7)" fill="rgba(172, 172, 179, 1)"></use><use xlink:href="#SvgjsG2220" transform="translate(0, 596.6999999999999) scale(1.7)" fill="rgba(172, 172, 179, 1)"></use><use xlink:href="#SvgjsG2220" transform="translate(66.3, 0) scale(1.7)" fill="rgba(172, 172, 179, 1)"></use><use xlink:href="#SvgjsG2221" transform="translate(66.3, 66.3) scale(1.7)" fill="rgba(172, 172, 179, 1)"></use><use xlink:href="#SvgjsG2222" transform="translate(66.3, 132.6) scale(1.7)" fill="rgba(172, 172, 179, 1)"></use><use xlink:href="#SvgjsG2219" transform="translate(66.3, 198.89999999999998) scale(1.7)" fill="rgba(172, 172, 179, 1)"></use><use xlink:href="#SvgjsG2220" transform="translate(66.3, 265.2) scale(1.7)" fill="rgba(172, 172, 179, 1)"></use><use xlink:href="#SvgjsG2221" transform="translate(66.3, 331.5) scale(1.7)" fill="rgba(172, 172, 179, 1)"></use><use xlink:href="#SvgjsG2222" transform="translate(66.3, 397.79999999999995) scale(1.7)" fill="rgba(172, 172, 179, 1)"></use><use xlink:href="#SvgjsG2219" transform="translate(66.3, 464.09999999999997) scale(1.7)" fill="rgba(172, 172, 179, 1)"></use><use xlink:href="#SvgjsG2220" transform="translate(66.3, 530.4) scale(1.7)" fill="rgba(172, 172, 179, 1)"></use><use xlink:href="#SvgjsG2221" transform="translate(66.3, 596.6999999999999) scale(1.7)" fill="rgba(172, 172, 179, 1)"></use><use xlink:href="#SvgjsG2221" transform="translate(132.6, 0) scale(1.7)" fill="rgba(172, 172, 179, 1)"></use><use xlink:href="#SvgjsG2222" transform="translate(132.6, 66.3) scale(1.7)" fill="rgba(172, 172, 179, 1)"></use><use xlink:href="#SvgjsG2219" transform="translate(132.6, 132.6) scale(1.7)" fill="rgba(172, 172, 179, 1)"></use><use xlink:href="#SvgjsG2220" transform="translate(132.6, 198.89999999999998) scale(1.7)" fill="rgba(172, 172, 179, 1)"></use><use xlink:href="#SvgjsG2221" transform="translate(132.6, 265.2) scale(1.7)" fill="rgba(172, 172, 179, 1)"></use><use xlink:href="#SvgjsG2222" transform="translate(132.6, 331.5) scale(1.7)" fill="rgba(172, 172, 179, 1)"></use><use xlink:href="#SvgjsG2219" transform="translate(132.6, 397.79999999999995) scale(1.7)" fill="rgba(172, 172, 179, 1)"></use><use xlink:href="#SvgjsG2220" transform="translate(132.6, 464.09999999999997) scale(1.7)" fill="rgba(172, 172, 179, 1)"></use><use xlink:href="#SvgjsG2221" transform="translate(132.6, 530.4) scale(1.7)" fill="rgba(172, 172, 179, 1)"></use><use xlink:href="#SvgjsG2222" transform="translate(132.6, 596.6999999999999) scale(1.7)" fill="rgba(172, 172, 179, 1)"></use><use xlink:href="#SvgjsG2222" transform="translate(198.89999999999998, 0) scale(1.7)" fill="rgba(172, 172, 179, 1)"></use><use xlink:href="#SvgjsG2219" transform="translate(198.89999999999998, 66.3) scale(1.7)" fill="rgba(172, 172, 179, 1)"></use><use xlink:href="#SvgjsG2220" transform="translate(198.89999999999998, 132.6) scale(1.7)" fill="rgba(172, 172, 179, 1)"></use><use xlink:href="#SvgjsG2221" transform="translate(198.89999999999998, 198.89999999999998) scale(1.7)" fill="rgba(172, 172, 179, 1)"></use><use xlink:href="#SvgjsG2222" transform="translate(198.89999999999998, 265.2) scale(1.7)" fill="rgba(172, 172, 179, 1)"></use><use xlink:href="#SvgjsG2219" transform="translate(198.89999999999998, 331.5) scale(1.7)" fill="rgba(172, 172, 179, 1)"></use><use xlink:href="#SvgjsG2220" transform="translate(198.89999999999998, 397.79999999999995) scale(1.7)" fill="rgba(172, 172, 179, 1)"></use><use xlink:href="#SvgjsG2221" transform="translate(198.89999999999998, 464.09999999999997) scale(1.7)" fill="rgba(172, 172, 179, 1)"></use><use xlink:href="#SvgjsG2222" transform="translate(198.89999999999998, 530.4) scale(1.7)" fill="rgba(172, 172, 179, 1)"></use><use xlink:href="#SvgjsG2219" transform="translate(198.89999999999998, 596.6999999999999) scale(1.7)" fill="rgba(172, 172, 179, 1)"></use><use xlink:href="#SvgjsG2219" transform="translate(265.2, 0) scale(1.7)" fill="rgba(172, 172, 179, 1)"></use><use xlink:href="#SvgjsG2220" transform="translate(265.2, 66.3) scale(1.7)" fill="rgba(172, 172, 179, 1)"></use><use xlink:href="#SvgjsG2221" transform="translate(265.2, 132.6) scale(1.7)" fill="rgba(172, 172, 179, 1)"></use><use xlink:href="#SvgjsG2222" transform="translate(265.2, 198.89999999999998) scale(1.7)" fill="rgba(172, 172, 179, 1)"></use><use xlink:href="#SvgjsG2219" transform="translate(265.2, 265.2) scale(1.7)" fill="rgba(172, 172, 179, 1)"></use><use xlink:href="#SvgjsG2220" transform="translate(265.2, 331.5) scale(1.7)" fill="rgba(172, 172, 179, 1)"></use><use xlink:href="#SvgjsG2221" transform="translate(265.2, 397.79999999999995) scale(1.7)" fill="rgba(172, 172, 179, 1)"></use><use xlink:href="#SvgjsG2222" transform="translate(265.2, 464.09999999999997) scale(1.7)" fill="rgba(172, 172, 179, 1)"></use><use xlink:href="#SvgjsG2219" transform="translate(265.2, 530.4) scale(1.7)" fill="rgba(172, 172, 179, 1)"></use><use xlink:href="#SvgjsG2220" transform="translate(265.2, 596.6999999999999) scale(1.7)" fill="rgba(172, 172, 179, 1)"></use><use xlink:href="#SvgjsG2220" transform="translate(331.5, 0) scale(1.7)" fill="rgba(172, 172, 179, 1)"></use><use xlink:href="#SvgjsG2221" transform="translate(331.5, 66.3) scale(1.7)" fill="rgba(172, 172, 179, 1)"></use><use xlink:href="#SvgjsG2222" transform="translate(331.5, 132.6) scale(1.7)" fill="rgba(172, 172, 179, 1)"></use><use xlink:href="#SvgjsG2219" transform="translate(331.5, 198.89999999999998) scale(1.7)" fill="rgba(172, 172, 179, 1)"></use><use xlink:href="#SvgjsG2220" transform="translate(331.5, 265.2) scale(1.7)" fill="rgba(172, 172, 179, 1)"></use><use xlink:href="#SvgjsG2221" transform="translate(331.5, 331.5) scale(1.7)" fill="rgba(172, 172, 179, 1)"></use><use xlink:href="#SvgjsG2222" transform="translate(331.5, 397.79999999999995) scale(1.7)" fill="rgba(172, 172, 179, 1)"></use><use xlink:href="#SvgjsG2219" transform="translate(331.5, 464.09999999999997) scale(1.7)" fill="rgba(172, 172, 179, 1)"></use><use xlink:href="#SvgjsG2220" transform="translate(331.5, 530.4) scale(1.7)" fill="rgba(172, 172, 179, 1)"></use><use xlink:href="#SvgjsG2221" transform="translate(331.5, 596.6999999999999) scale(1.7)" fill="rgba(172, 172, 179, 1)"></use><use xlink:href="#SvgjsG2221" transform="translate(397.79999999999995, 0) scale(1.7)" fill="rgba(172, 172, 179, 1)"></use><use xlink:href="#SvgjsG2222" transform="translate(397.79999999999995, 66.3) scale(1.7)" fill="rgba(172, 172, 179, 1)"></use><use xlink:href="#SvgjsG2219" transform="translate(397.79999999999995, 132.6) scale(1.7)" fill="rgba(172, 172, 179, 1)"></use><use xlink:href="#SvgjsG2220" transform="translate(397.79999999999995, 198.89999999999998) scale(1.7)" fill="rgba(172, 172, 179, 1)"></use><use xlink:href="#SvgjsG2221" transform="translate(397.79999999999995, 265.2) scale(1.7)" fill="rgba(172, 172, 179, 1)"></use><use xlink:href="#SvgjsG2222" transform="translate(397.79999999999995, 331.5) scale(1.7)" fill="rgba(172, 172, 179, 1)"></use><use xlink:href="#SvgjsG2219" transform="translate(397.79999999999995, 397.79999999999995) scale(1.7)" fill="rgba(172, 172, 179, 1)"></use><use xlink:href="#SvgjsG2220" transform="translate(397.79999999999995, 464.09999999999997) scale(1.7)" fill="rgba(172, 172, 179, 1)"></use><use xlink:href="#SvgjsG2221" transform="translate(397.79999999999995, 530.4) scale(1.7)" fill="rgba(172, 172, 179, 1)"></use><use xlink:href="#SvgjsG2222" transform="translate(397.79999999999995, 596.6999999999999) scale(1.7)" fill="rgba(172, 172, 179, 1)"></use><use xlink:href="#SvgjsG2222" transform="translate(464.09999999999997, 0) scale(1.7)" fill="rgba(172, 172, 179, 1)"></use><use xlink:href="#SvgjsG2219" transform="translate(464.09999999999997, 66.3) scale(1.7)" fill="rgba(172, 172, 179, 1)"></use><use xlink:href="#SvgjsG2220" transform="translate(464.09999999999997, 132.6) scale(1.7)" fill="rgba(172, 172, 179, 1)"></use><use xlink:href="#SvgjsG2221" transform="translate(464.09999999999997, 198.89999999999998) scale(1.7)" fill="rgba(172, 172, 179, 1)"></use><use xlink:href="#SvgjsG2222" transform="translate(464.09999999999997, 265.2) scale(1.7)" fill="rgba(172, 172, 179, 1)"></use><use xlink:href="#SvgjsG2219" transform="translate(464.09999999999997, 331.5) scale(1.7)" fill="rgba(172, 172, 179, 1)"></use><use xlink:href="#SvgjsG2220" transform="translate(464.09999999999997, 397.79999999999995) scale(1.7)" fill="rgba(172, 172, 179, 1)"></use><use xlink:href="#SvgjsG2221" transform="translate(464.09999999999997, 464.09999999999997) scale(1.7)" fill="rgba(172, 172, 179, 1)"></use><use xlink:href="#SvgjsG2222" transform="translate(464.09999999999997, 530.4) scale(1.7)" fill="rgba(172, 172, 179, 1)"></use><use xlink:href="#SvgjsG2219" transform="translate(464.09999999999997, 596.6999999999999) scale(1.7)" fill="rgba(172, 172, 179, 1)"></use><use xlink:href="#SvgjsG2219" transform="translate(530.4, 0) scale(1.7)" fill="rgba(172, 172, 179, 1)"></use><use xlink:href="#SvgjsG2220" transform="translate(530.4, 66.3) scale(1.7)" fill="rgba(172, 172, 179, 1)"></use><use xlink:href="#SvgjsG2221" transform="translate(530.4, 132.6) scale(1.7)" fill="rgba(172, 172, 179, 1)"></use><use xlink:href="#SvgjsG2222" transform="translate(530.4, 198.89999999999998) scale(1.7)" fill="rgba(172, 172, 179, 1)"></use><use xlink:href="#SvgjsG2219" transform="translate(530.4, 265.2) scale(1.7)" fill="rgba(172, 172, 179, 1)"></use><use xlink:href="#SvgjsG2220" transform="translate(530.4, 331.5) scale(1.7)" fill="rgba(172, 172, 179, 1)"></use><use xlink:href="#SvgjsG2221" transform="translate(530.4, 397.79999999999995) scale(1.7)" fill="rgba(172, 172, 179, 1)"></use><use xlink:href="#SvgjsG2222" transform="translate(530.4, 464.09999999999997) scale(1.7)" fill="rgba(172, 172, 179, 1)"></use><use xlink:href="#SvgjsG2219" transform="translate(530.4, 530.4) scale(1.7)" fill="rgba(172, 172, 179, 1)"></use><use xlink:href="#SvgjsG2220" transform="translate(530.4, 596.6999999999999) scale(1.7)" fill="rgba(172, 172, 179, 1)"></use><use xlink:href="#SvgjsG2220" transform="translate(596.6999999999999, 0) scale(1.7)" fill="rgba(172, 172, 179, 1)"></use><use xlink:href="#SvgjsG2221" transform="translate(596.6999999999999, 66.3) scale(1.7)" fill="rgba(172, 172, 179, 1)"></use><use xlink:href="#SvgjsG2222" transform="translate(596.6999999999999, 132.6) scale(1.7)" fill="rgba(172, 172, 179, 1)"></use><use xlink:href="#SvgjsG2219" transform="translate(596.6999999999999, 198.89999999999998) scale(1.7)" fill="rgba(172, 172, 179, 1)"></use><use xlink:href="#SvgjsG2220" transform="translate(596.6999999999999, 265.2) scale(1.7)" fill="rgba(172, 172, 179, 1)"></use><use xlink:href="#SvgjsG2221" transform="translate(596.6999999999999, 331.5) scale(1.7)" fill="rgba(172, 172, 179, 1)"></use><use xlink:href="#SvgjsG2222" transform="translate(596.6999999999999, 397.79999999999995) scale(1.7)" fill="rgba(172, 172, 179, 1)"></use><use xlink:href="#SvgjsG2219" transform="translate(596.6999999999999, 464.09999999999997) scale(1.7)" fill="rgba(172, 172, 179, 1)"></use><use xlink:href="#SvgjsG2220" transform="translate(596.6999999999999, 530.4) scale(1.7)" fill="rgba(172, 172, 179, 1)"></use><use xlink:href="#SvgjsG2221" transform="translate(596.6999999999999, 596.6999999999999) scale(1.7)" fill="rgba(172, 172, 179, 1)"></use></g></defs></svg>